<svg width="15" height="15" viewBox="0 0 15 15" fill="none" xmlns="http://www.w3.org/2000/svg">
<rect width="15" height="15" rx="4" fill="#B88F63"/>
<path d="M8.23136 3.27273H10.3109V9.30682C10.3081 9.87216 10.1731 10.3665 9.90607 10.7898C9.63903 11.2102 9.26971 11.5369 8.79812 11.7699C8.32937 12.0028 7.78675 12.1193 7.17028 12.1193C6.62482 12.1193 6.12908 12.0241 5.68306 11.8338C5.23988 11.6435 4.88619 11.348 4.62198 10.9474C4.36062 10.5469 4.23136 10.0341 4.2342 9.40909H6.33505C6.34357 9.63352 6.38619 9.82528 6.46289 9.98438C6.54244 10.1406 6.65181 10.2585 6.79102 10.3381C6.93022 10.4176 7.09641 10.4574 7.2896 10.4574C7.4913 10.4574 7.66175 10.4148 7.80096 10.3295C7.94016 10.2415 8.04528 10.1122 8.1163 9.94176C8.19016 9.77131 8.22852 9.55966 8.23136 9.30682V3.27273Z" fill="white"/>
</svg>
