<svg width="756" height="219" viewBox="0 0 756 219" fill="none" xmlns="http://www.w3.org/2000/svg">
<path d="M365.997 123.214C374.547 120.857 384.553 118.684 392.415 114.525C394.638 113.333 393.209 110.472 391.012 110.657C382.224 111.425 372.588 115.691 364.568 119.294C362.424 120.274 363.694 123.85 365.997 123.214Z" fill="#212121"/>
<path d="M371.08 183.511C375.5 184.756 379.709 186.637 384.077 188.041C387.306 189.075 391.065 190.558 394.321 189.154C395.327 188.73 395.194 187.379 394.427 186.823C391.568 184.677 386.697 184.173 383.256 183.14C379.338 181.948 375.659 180.994 371.556 180.835C370.021 180.782 369.518 183.087 371.053 183.538L371.08 183.511Z" fill="#212121"/>
<path d="M174.959 161.019C169.506 153.575 155.953 148.991 146.926 148.674C141.738 148.488 132.262 151.508 135.094 158.343C135.438 159.138 136.603 159.482 137.344 159.059C139.197 157.999 141.42 155.323 143.168 154.82C146.82 153.734 151.373 155.747 154.815 156.86C161.009 158.873 166.62 162.794 172.92 164.225C174.906 164.675 176.203 162.635 175.012 161.019H174.959Z" fill="#212121"/>
<path d="M239.388 205.685C246.35 211.46 258.421 214.295 267.341 212.652C271.179 211.937 272.609 209.977 274.647 206.665C275.971 204.493 276.341 201.87 276.844 199.353C277.903 194.081 279.756 188.942 282.35 184.226L241.268 161.284L207.623 164.41C196.479 163.377 185.309 162.317 174.165 161.284C173.529 164.171 172.92 167.059 172.285 169.947L239.415 205.685H239.388Z" fill="#D42828"/>
<path d="M160.823 170.291C148.065 176.226 135.015 181.498 121.726 186.081C119.053 187.008 116.247 187.909 113.415 187.644C110.9 187.405 108.544 186.266 106.268 185.154C88.0822 176.199 69.8969 167.271 51.7116 158.317C72.491 151.164 93.2705 144.011 114.05 136.832C116.485 135.984 119.026 135.136 121.594 135.401C123.659 135.613 125.591 136.514 127.47 137.414C137.291 142.104 147.112 146.713 156.906 151.455C162.279 154.052 163.55 155.244 166.171 156.489C168.791 157.734 172.762 163.059 168.632 165.549C164.503 168.04 160.797 170.265 160.797 170.265" fill="#212121"/>
<path d="M401.812 95.3443C403.771 84.138 403.135 72.4814 399.985 61.5665C397.471 52.9035 393.394 44.6909 391.779 35.8159L358.162 54.3606L347.309 102.55L358.982 119.664L403.162 111.531L401.812 95.3178V95.3443Z" fill="#D42828"/>
<path d="M269.856 177.577C299.556 200.36 341.724 205.632 376.109 190.849C376.109 190.849 370.259 172.093 366.791 169.682C363.324 167.271 338.891 128.089 338.891 128.089L334.126 106.842L282.668 90.4697L251.459 107.266L249.156 145.15L262.947 173.55L269.829 177.577H269.856Z" fill="#D42828"/>
<path d="M276.871 90.2844C254.635 80.9591 226.126 91.1586 214.823 112.459C203.123 134.5 209.715 161.31 208.153 186.213C191.079 181.524 174.509 175.087 158.759 167.006C157.382 172.49 156.032 177.974 154.656 183.458C170.432 193.923 187.003 203.168 204.209 211.09C207.915 212.785 211.7 214.454 215.75 214.984C225.597 216.282 235.047 210.745 242.618 204.334C268.718 182.319 282.853 146.899 279.147 112.935" fill="#D42828"/>
<path d="M181.947 48.3998C155.82 52.6385 154.259 82.1511 161.141 102.497C163.762 110.259 167.017 124.088 176.917 125.466C180.041 125.89 182.317 124.459 185.123 123.453C191.503 121.121 192.165 119.691 198.809 123.453C201.297 124.857 203.229 126.075 205.903 127.215C210.006 128.963 213.394 122.075 209.317 120.088C204.95 117.942 200.238 113.386 195.235 112.644C187.876 111.558 184.541 118.128 177.579 115.902C168.288 112.909 165.032 94.7879 164.106 85.807C162.65 71.872 168.076 57.1422 183.138 53.6717C186.553 52.877 185.362 47.8434 181.947 48.3998Z" fill="#212121"/>
<path d="M163.576 78.9194C161.724 83.6351 156.138 93.0134 152.618 96.06C152.3 96.3249 151.956 96.6428 151.903 97.0402C151.824 97.4906 152.088 97.9145 152.379 98.2854C155.344 102.233 165.615 104.511 167.838 104.776" fill="white"/>
<path d="M162.306 78.0981C159.394 81.913 156.641 85.8604 153.729 89.7018C151.585 92.5099 147.217 95.2652 148.965 99.292C151.188 104.405 163.788 110.101 168.87 107.611C170.723 106.71 171.226 103.981 169.797 102.498C168.05 100.696 165.535 100.617 163.206 99.9808C161.67 99.5569 155.582 98.2058 155.238 96.3248C155.079 97.1991 154.92 98.0734 154.762 98.9476C159.156 92.6159 163.947 87.0525 165.085 79.0253C165.297 77.4093 163.126 77.0384 162.332 78.1246L162.306 78.0981Z" fill="#212121"/>
<path d="M251.935 87.7411C254.45 89.1452 257.891 85.8866 256.674 83.2904C256.276 82.4691 255.535 81.7273 255.562 80.8001C255.588 79.8994 256.356 79.237 257.097 78.7337C260.168 76.6408 263.821 75.5546 266.918 73.5147C270.015 71.4748 272.582 67.8188 271.629 64.2159C268.85 65.514 265.7 66.3088 262.709 65.62C259.718 64.9576 256.991 62.4939 256.726 59.4472C256.488 56.7715 258.076 54.2812 258.553 51.6055C259.744 44.8234 253.735 39.1541 248.335 34.9153C251.379 34.8888 254.582 34.8358 257.282 33.4317C259.982 32.0276 262.047 28.822 261.094 25.9079C260.221 23.2586 257.362 21.881 254.741 20.9273C248.282 18.596 241.506 17.0859 234.65 16.4766C239.124 15.4699 244.815 12.6882 243.729 8.23746C243.147 5.87964 240.791 4.44905 238.541 3.49532C218.45 -4.98224 194.071 4.81994 180.385 21.8016C182.185 17.1124 183.032 12.0524 182.873 7.0453C168.765 12.4233 159.473 28.2922 161.697 43.2604C160.294 40.2403 158.362 37.4851 156.059 35.1007C154.973 33.9881 153.518 32.9019 152.009 33.3257C150.871 33.6437 150.156 34.7298 149.653 35.7895C144.279 46.9428 152.935 62.2024 165.271 63.2621C165.271 63.2621 171.835 51.3141 183.112 53.8308C188.909 55.129 193.7 57.3014 194.071 63.2356C194.441 69.1699 194.176 81.9922 199.418 80.4822C204.659 78.9721 200.768 62.6793 210.297 66.4942C219.826 70.3091 217.947 81.277 217.179 83.6083C216.385 85.9131 225.888 97.4373 225.888 97.4373L252.015 87.6881L251.935 87.7411Z" fill="#212121"/>
<path d="M170.459 88.3238C172.179 88.5887 175.515 87.5555 174.985 85.2242C174.482 82.8663 171.068 83.1842 169.479 83.9525C167.229 85.0387 168.315 88.0323 170.432 88.3238H170.459Z" fill="#212121"/>
<path d="M258.553 85.3038C274.462 85.5423 289.682 78.8927 303.394 70.839C317.106 62.7853 329.944 53.1421 344.397 46.466C359.671 39.3925 376.532 35.7896 393.368 36.0015C380.635 41.353 368.221 51.632 367.241 65.4081C366.368 77.7005 374.812 89.0393 374.865 101.358C374.918 110.26 370.603 118.499 367.824 126.976C363.826 139.136 363.032 152.886 368.432 164.516C372.085 172.384 378.624 180.411 375.924 188.624" fill="#D42828"/>
<path d="M383.547 112.273C407.821 92.8011 439.956 89.6485 451.471 87.3172C489.959 79.5549 528.235 101.623 566.115 111.902C570.721 113.147 575.512 114.339 580.197 113.386C584.697 112.458 588.562 109.65 592.321 107.001C614.927 90.8671 639.041 76.9057 664.268 65.355C669.059 71.2098 673.824 77.0381 678.615 82.8929C678.615 82.8929 593.088 183.008 566.75 191.565C540.412 200.122 491.203 211.116 442.868 203.38C394.559 195.645 383.627 187.458 383.627 187.458C383.627 187.458 374.203 140.805 383.547 112.299" fill="#212121"/>
<path d="M680.865 75.104C684.386 72.4812 688.886 69.726 692.909 71.554C694.497 72.2958 695.715 73.6469 697.092 74.7596C700.109 77.1704 703.921 78.2831 707.653 79.3427C702.492 70.9976 696.589 63.1029 690.024 55.791C682.294 59.8973 674.141 63.2619 665.75 65.7786L676.894 78.495L680.892 75.0775L680.865 75.104Z" fill="#212121"/>
<path d="M637.056 133.52C649.18 135.427 661.621 133.149 673.374 129.599C685.127 126.023 696.456 121.175 708.236 117.731C709.4 117.386 710.644 117.068 711.756 117.545C712.709 117.942 713.344 118.817 713.927 119.664C717.156 124.38 720.121 129.281 722.768 134.341L716.23 138.66C704.397 145.018 692.538 151.402 680.706 157.761C659.053 169.417 619.797 184.306 584.327 183.617C576.941 183.564 569.715 176.04 569.715 176.04L626.468 130.076L637.03 133.52H637.056Z" fill="#212121"/>
<path d="M727.453 128.778C737.221 127.48 746.009 136.381 755.856 135.825C751.383 127.241 746.194 119.029 740.371 111.319C732.721 115.32 724.647 118.446 716.309 120.645L723.536 131.268L727.453 128.804V128.778Z" fill="#212121"/>
<path d="M152.962 181.656C152.803 181.391 153.491 181.418 153.412 181.736C153.332 182.053 152.909 182.106 152.591 182.08C144.782 181.391 140.123 171.218 132.262 171.112C128.847 171.059 125.75 173.02 122.388 173.602C120.482 173.947 117.994 173.443 117.57 171.562C117.147 169.735 119 168.251 120.588 167.271C123.023 165.787 125.485 164.304 127.92 162.82C130.356 161.363 132.897 159.853 135.729 159.667C138.429 159.508 141.05 160.595 143.538 161.654C147.165 163.191 150.818 164.754 154.444 166.291C154.709 166.396 155.026 166.476 155.265 166.635C157.568 168.145 162.544 171.51 162.544 171.51" fill="white"/>
<path d="M153.518 179.563C147.271 178.769 143.538 171.854 138.032 169.311C136.523 168.622 123.368 167.271 124.162 169.761C123.632 168.145 130.594 164.569 131.838 164.118C138.297 161.814 142.559 164.542 148.038 166.874C152.75 168.861 156.668 171.218 160.876 174.08C164.159 176.305 167.521 171.139 164.238 168.914C156.879 163.933 147.535 157.866 138.562 156.754C132.05 155.932 126.888 159.694 121.568 162.926C118.841 164.595 115.268 166.211 114.579 169.655C114.023 172.411 115.109 174.689 117.571 176.04C123.738 179.457 129.615 172.464 136.338 175.722C140.865 177.921 150.05 189.339 155.212 182.875C156.323 181.497 154.973 179.722 153.518 179.537V179.563Z" fill="#212121"/>
<path d="M80.4057 79.5817C81.2527 79.4492 90.941 97.3316 92.1586 99.1595C96.4998 105.73 101.106 112.114 106.003 118.261C107.167 119.744 112.329 124.301 111.826 126.394C111.35 128.381 103.885 129.334 102.059 129.864C94.3027 132.09 86.5998 134.421 78.9233 136.885C67.7792 140.461 56.5027 145.972 45.1468 148.568C39.7998 149.786 38.1056 143.985 35.1939 139.905C31.938 135.322 28.5762 130.818 25.0821 126.367C18.1468 117.492 10.788 108.962 3.05855 100.776C27.9939 90.9469 53.9615 83.8204 80.4057 79.5552V79.5817Z" fill="#212121"/>
<path d="M47.2116 155.827C47.6351 155.88 48.0322 155.959 48.4557 156.012L48.3763 155.562C48.4292 155.244 48.2175 154.741 48.1381 154.449C48.0057 153.787 47.8469 153.125 47.741 152.462C47.7145 153.045 47.6881 153.601 47.6616 154.184L47.7939 153.84C47.4763 154.343 47.1587 154.82 46.841 155.323C47.2381 154.926 47.0528 154.979 46.2851 155.429C46.391 155.429 46.4969 155.376 46.6292 155.35C46.2851 155.376 46.2587 155.403 46.5234 155.403C46.7881 155.403 46.7616 155.403 46.391 155.376C46.7616 155.509 46.8145 155.535 46.5763 155.429C46.3381 155.323 46.391 155.35 46.7351 155.562C46.4704 155.297 46.391 155.164 46.2587 154.767C46.2587 154.635 46.2587 154.502 46.2587 154.343C46.2322 154.794 46.2587 154.767 46.2851 154.237C46.3381 154.131 46.391 153.999 46.4704 153.893C46.2587 154.211 46.2322 154.237 46.4175 153.999C47.4234 153.045 48.4557 153.39 49.4351 154.29C49.6204 154.582 49.5939 154.555 49.4087 154.211C49.4616 154.343 49.5145 154.502 49.5675 154.635C49.4881 154.158 49.4616 154.211 49.5145 154.794C49.5145 154.688 49.5145 154.555 49.5145 154.449C49.2498 153.416 49.5939 155.297 49.5145 154.29C49.8057 153.654 49.6204 153.76 49.0116 154.635C48.5881 155.403 47.8998 155.747 46.9734 155.641C46.6822 155.641 45.6234 155.032 46.1792 155.456C45.4645 154.926 45.3587 154.608 45.1734 153.601C45.1734 153.734 45.1734 153.893 45.1734 154.025C45.2528 153.628 45.2263 153.575 45.1469 153.893C45.041 154.184 45.041 154.158 45.1998 153.84C45.0675 154.105 44.9087 154.343 44.7234 154.582C47.1057 154.396 49.4616 154.211 51.844 154.025C51.3675 153.416 50.7322 152.966 50.1498 152.462C50.6263 152.992 51.1292 153.522 51.6057 154.052C50.9704 153.125 50.6528 152.118 49.7792 151.35C48.4557 150.21 46.3381 149.654 44.9616 151.111C43.5851 152.542 43.241 153.999 43.4792 155.959C43.691 157.522 44.1675 158.82 45.1734 160.092C46.9998 162.37 50.8116 161.867 52.294 159.536C53.9351 156.992 54.8881 153.654 53.4587 150.767C52.2939 148.409 49.9381 146.872 47.291 146.793C40.7792 146.607 39.1116 155.456 42.8704 159.562C46.9734 164.013 54.2792 160.595 54.1204 154.741C53.9881 149.442 47.1851 146.051 42.8969 149.31C41.2822 150.528 40.5939 152.674 41.6263 154.529C42.2616 155.641 43.2675 156.622 44.141 157.575C44.9087 158.423 45.7822 159.35 46.9998 159.43C48.0851 159.483 49.1704 158.794 49.4087 157.708C49.6998 156.41 48.5087 155.27 47.2381 155.853L47.2116 155.827Z" fill="#212121"/>
<path d="M110.582 130.685C110.582 130.685 110.397 130.685 110.317 130.659C110.847 130.897 111.376 131.162 111.906 131.4C111.853 131.347 111.8 131.268 111.747 131.215C111.959 131.798 112.17 132.354 112.356 132.937C112.356 132.593 112.462 132.142 112.356 131.824C112.964 133.361 110.873 134.447 109.788 133.944C109.312 133.732 108.862 133.175 108.835 132.646C108.782 132.46 108.835 132.275 108.914 132.116C108.756 132.593 108.756 132.593 108.941 132.063C109.814 131.453 110.662 130.871 111.535 130.261C113.123 130.526 113.573 130.553 112.912 130.261C112.541 130.129 112.144 130.049 111.747 130.023C110.503 129.97 109.682 130.473 108.703 131.136C107.088 132.275 107.114 134.686 107.776 136.275C108.756 138.633 111.773 139.481 113.97 138.421C115.32 137.759 116.273 136.487 116.67 135.056C117.544 132.036 116.353 128.486 113.414 127.109C110.582 125.784 106.77 127.109 106.214 130.447C105.976 131.798 106.4 133.122 107.326 134.129C107.909 134.765 108.597 135.162 109.47 135.242C109.762 135.295 110.053 135.295 110.344 135.215C110.026 135.215 110.053 135.215 110.397 135.268C113.335 135.613 113.547 131.03 110.609 130.685H110.582Z" fill="#212121"/>
<path d="M20.8468 103.769C27.3586 114.684 34.9821 124.937 43.5586 134.315C44.1145 134.924 44.7763 135.56 45.5969 135.587C46.0469 135.587 46.4969 135.401 46.9204 135.216C61.7175 128.672 77.1763 123.665 92.9792 120.248C87.6322 111.346 82.2851 102.471 76.9645 93.5697C76.3292 92.5365 75.6675 91.4238 74.5557 90.9204C72.6498 89.9932 70.4792 91.1324 68.5998 92.1126C54.2527 99.6629 36.941 99.292 22.091 105.756" fill="#FDFDFD"/>
<path d="M77.6262 160.674C84.138 159.376 90.0938 156.648 96.235 154.21C103.038 151.508 110.503 149.548 116.882 145.945C117.676 145.494 117.226 144.329 116.326 144.461C109.444 145.521 102.667 148.673 96.235 151.217C89.7233 153.786 83.1585 156.25 77.4938 160.41C77.3615 160.515 77.4938 160.701 77.6262 160.674Z" fill="#FDFDFD"/>
<path d="M93.6674 165.072C105.05 159.35 117.65 156.118 128.953 150.422C129.482 150.157 129.164 149.389 128.609 149.495C116.114 151.588 104.362 158.635 93.4027 164.595C93.0851 164.781 93.3498 165.258 93.6674 165.099V165.072Z" fill="#FDFDFD"/>
<path d="M101.582 170.132C111.906 164.596 122.997 160.728 133.479 155.535C134.009 155.27 133.717 154.369 133.109 154.528C121.753 157.734 111.535 163.907 101.476 169.894C101.344 169.973 101.45 170.185 101.582 170.106V170.132Z" fill="#FDFDFD"/>
<path d="M169.718 75.1309C171.544 74.9189 173.238 74.3096 175.091 74.3361C177.262 74.3626 179.274 75.2368 181.418 74.654C181.974 74.4951 182.476 73.7798 182.079 73.1969C179.459 69.3025 169.665 67.5541 168.209 73.4619C167.971 74.4686 168.712 75.2368 169.718 75.1309Z" fill="#212121"/>
<path d="M188.644 117.492C193.62 116.989 198.12 115.532 201.72 111.849C204.262 109.253 207.438 103.955 204.712 100.617C204.076 99.8218 202.541 99.6629 201.826 100.484C200.688 101.782 200.688 102.709 200.265 104.352C199.788 106.154 198.729 107.876 197.485 109.253C195.023 111.955 191.159 113.836 187.903 115.452C186.712 116.035 187.479 117.625 188.644 117.492Z" fill="#212121"/>
<path d="M205.876 86.4962C204.023 91.0529 211.859 90.8675 214.268 90.3906C218.291 89.5958 222.368 86.4167 222.315 81.9395C222.315 79.7142 219.032 78.1511 217.815 80.4824C216.703 82.5753 215.882 84.1914 213.42 84.8272C211.991 85.1981 209.212 85.9399 207.915 85.463C207.068 85.1716 206.22 85.7014 205.903 86.4962H205.876Z" fill="#212121"/>
<path d="M282.535 184.65C282.932 184.65 282.959 184.041 282.562 184.015C282.165 184.015 282.138 184.624 282.535 184.65Z" fill="#212121"/>
<path d="M367.374 136.805C373.012 123.135 378.412 109.015 378.624 94.073C378.862 75.1574 376.85 60.0302 385.797 42.4658C386.088 41.883 385.427 41.2207 384.897 41.6975C374.388 51.2613 374.309 66.5474 374.547 79.8201C374.759 90.7614 375.077 100.961 372.377 111.717C370.259 120.141 366.818 127.851 366.235 136.567C366.182 137.256 367.135 137.362 367.374 136.779V136.805Z" fill="#FDFDFD"/>
<path d="M216.359 218.507C247.012 214.057 265.991 179.405 274.144 152.7C274.435 151.747 273.006 150.952 272.529 151.906C258.288 180.385 248.838 205.897 215.829 216.044C214.294 216.521 214.771 218.719 216.385 218.507H216.359Z" fill="#FDFDFD"/>
<path d="M167.071 169.788C172.735 175.59 179.115 178.265 186.712 180.915C191.741 182.663 201.668 187.962 207.121 186.24C211.303 184.915 210.906 180.756 210.641 177.1C209.874 166.503 209.715 155.058 207.332 144.7C207.121 143.746 205.691 143.852 205.638 144.859C205.374 150.13 206.062 155.429 206.538 160.674C206.803 163.774 207.068 166.874 207.332 169.947C207.491 171.854 208.894 179.564 208.18 180.862C203.944 188.809 172.656 172.596 168.394 168.622C167.574 167.854 166.303 168.993 167.097 169.814L167.071 169.788Z" fill="#FDFDFD"/>
<path d="M262.815 176.543C279.253 190.16 299.847 200.413 320.441 205.791C321.606 206.082 322.056 204.546 320.997 204.069C301.329 195.168 282.694 185.445 263.9 174.874C262.762 174.239 261.809 175.749 262.815 176.57V176.543Z" fill="#FDFDFD"/>
<path d="M255.032 105.756C263.556 112.591 267.659 120.3 269.009 131.083C269.115 131.851 270.227 131.666 270.306 130.977C271.391 120.698 264.959 109.28 255.668 104.776C255.006 104.458 254.45 105.279 255.032 105.756Z" fill="#FDFDFD"/>
<path d="M637.48 128.91C628.93 135.586 621.862 144.408 614.053 151.932C606.192 159.482 597.165 166.159 589.859 174.212C589.303 174.822 589.912 175.934 590.733 175.457C600.262 170.079 608.468 161.92 616.33 154.422C624.192 146.978 632.927 139.136 638.486 129.731C638.883 129.069 638.089 128.433 637.48 128.884V128.91Z" fill="#FDFDFD"/>
<path d="M579.165 106.895C575.936 108.299 574.612 112.671 573.447 115.797C571.833 120.168 570.986 124.513 570.959 129.149C570.959 130.526 572.786 130.526 573.024 129.255C573.791 125.016 574.744 120.751 576.2 116.697C577.312 113.598 579.774 110.498 579.536 107.134C579.536 106.922 579.35 106.789 579.139 106.895H579.165Z" fill="#FDFDFD"/>
<path d="M49.9645 158.608C49.2763 160.224 48.7998 161.92 48.5351 163.668C48.4028 164.304 48.5351 164.993 49.1175 165.364C68.9704 177.815 88.9028 189.631 111.218 196.916C113.547 197.685 114.712 194.082 112.409 193.313C100.947 189.525 90.491 185.074 79.7969 179.352C72.7028 175.564 51.6322 167.934 51.844 158.953C51.844 157.867 50.3087 157.549 49.9381 158.608H49.9645Z" fill="#212121"/>
<path d="M113.388 194.664C114.606 192.174 115.479 189.975 115.241 187.167C115.082 185.392 112.065 185.657 112.091 187.432C112.144 189.551 112.303 191.777 111.588 193.79C111.218 194.823 112.885 195.698 113.388 194.664Z" fill="#212121"/>
<path d="M113.256 196.651C119.026 194.744 124.718 192.572 130.382 190.399C135.835 188.306 142.109 186.134 146.291 181.895C147.429 180.729 146.185 178.954 144.703 179.59C139.276 181.975 134.3 184.995 128.715 187.141C123.156 189.26 117.438 191.061 112.435 194.373C111.376 195.088 111.826 197.155 113.282 196.678L113.256 196.651Z" fill="#212121"/>
<path d="M44.9881 145.759C46.8145 149.415 48.7734 153.23 52.0822 155.641C55.0998 157.84 58.9645 158.661 62.6969 158.476C66.4293 158.29 70.0557 157.178 73.5499 155.88C84.8528 151.614 95.2293 145.097 106.691 141.282C109.868 140.223 113.52 139.004 114.844 135.904C115.956 133.229 114.738 129.996 112.462 128.195C110.185 126.42 107.141 125.89 104.256 126.155C101.37 126.394 98.6175 127.321 95.8381 128.169C87.3146 130.712 78.5263 132.301 70.0293 135.03C61.5587 137.759 53.2469 141.733 47.1322 148.197" fill="#212121"/>
<path d="M41.6793 156.754C39.3499 151.773 46.8411 149.283 49.647 153.045C50.7852 154.555 50.8646 156.568 49.7793 158.131C48.8264 159.509 47.2117 160.251 46.3646 161.681C45.8882 162.502 46.5499 163.377 47.4499 163.271C50.4411 162.9 53.2999 159.376 53.6176 156.489C53.9617 153.363 52.1352 150.395 49.3293 149.097C46.497 147.773 42.7911 148.064 40.3293 150.025C37.7617 152.064 36.9411 155.879 39.5087 158.264C40.594 159.27 42.3146 158.184 41.6529 156.78L41.6793 156.754Z" fill="#FDFDFD"/>
<path d="M41.6264 151.217C62.5382 147.164 85.0117 138.368 103.885 128.54C104.335 128.301 104.071 127.506 103.568 127.692C82.947 135.216 61.7441 142.448 41.4941 150.846C41.2823 150.926 41.4147 151.244 41.6264 151.191V151.217Z" fill="#FDFDFD"/>
<path d="M72.3588 152.303C91.1264 145.071 110.556 139.481 129.271 132.328C130.356 131.904 129.668 130.235 128.582 130.447C109.338 134.553 89.7764 143.322 72.3058 152.197C72.2264 152.223 72.3058 152.329 72.3588 152.303Z" fill="#FDFDFD"/>
<path d="M3.00573 101.173C-4.8031 103.319 5.73221 114.419 7.63809 117.148C16.744 130.155 26.4322 143.269 37.9734 154.21C39.0322 155.217 40.594 153.839 39.6675 152.674C35.3264 147.243 -2.52663 106.948 3.29691 101.729C3.53515 101.517 3.32338 101.067 3.00573 101.173Z" fill="#212121"/>
</svg>
