<svg width="246" height="54" viewBox="0 0 246 54" fill="none" xmlns="http://www.w3.org/2000/svg">
<g clip-path="url(#clip0_26_126)">
<path d="M2.71781 43.912H0L1.30181 32.8797H52.4149L51.056 43.912H48.2811C48.2811 42.9639 48.0565 40.6256 46.1305 40.6256H32.6594L31.9248 46.5877C31.5289 49.7655 33.5083 50.6574 34.6997 50.9909L34.3038 54H14.1524L14.5483 50.9909C15.793 50.6574 18.0578 49.7655 18.4537 46.5877L19.1884 40.6256H5.6602C3.73414 40.6256 2.94239 42.9677 2.71781 43.912ZM7.47208 2.22974H53.9451L52.8679 10.4778H36.679L36.6219 11.0923C35.7731 17.8901 42.0005 23.2414 52.5824 23.9646L51.6765 30.9311C41.0336 31.0997 31.6393 28.6451 28.0155 23.129C23.0329 28.6451 13.0714 31.0959 2.42852 30.9311L3.33446 23.9646C14.0344 23.2414 21.6169 17.8901 22.4657 11.0923L22.5228 10.4778H6.39485L7.47208 2.22974Z" fill="#B88F63"/>
<path d="M78.7939 2.22971H113.098L112.135 9.91937H101.606L100.757 16.6047C100.08 22.1209 104.324 25.8571 110.662 26.1906L109.756 33.4343C101.435 33.6029 95.4928 31.8754 92.8321 27.3598C88.3595 32.8759 80.5487 34.3824 74.3213 34.2137L75.2272 26.97C81.6221 26.8014 86.9435 22.1209 87.6249 16.6047L88.4737 9.91937H77.8308L78.7939 2.22971ZM80.1528 44.0244C80.5487 40.6818 78.5122 39.7337 77.3208 39.4001L77.6596 36.3348H93.9055L92.775 45.6958H126.626L125.72 53.1081H79.0223L80.1528 44.0244ZM132.792 1.39404L132.454 4.4032C131.152 4.73672 128.944 5.68481 128.548 9.02749L125.492 33.2694C125.096 36.6121 127.075 37.5602 128.266 37.8937L127.871 40.9591H111.625L116.55 1.39404H132.796H132.792Z" fill="#B88F63"/>
<path d="M130.98 26.9176H168.508L167.545 34.4423H153.845L153.335 38.3996H140.995L141.505 34.4423H130.013L130.976 26.9176H130.98ZM165.847 17.0544C165.055 23.6873 156.62 25.2462 148.924 25.2462C141.227 25.2462 133.188 23.6873 133.98 17.0544C134.261 15.0495 132.735 13.0409 131.715 12.6512C132.845 12.2053 134.885 10.2004 135.11 8.19181C135.902 1.61513 144.28 0 152.091 0C159.901 0 167.769 1.61513 166.978 8.19181C166.749 10.1967 168.222 12.2053 169.185 12.6512C168.108 13.0409 166.129 15.0458 165.847 17.0544ZM135.11 47.0898C135.563 43.7471 133.469 43.0763 132.278 42.7428L132.617 39.7337H148.863L148.128 45.6958H183.109L182.204 53.1081H134.372L135.106 47.0898H135.11ZM149.658 19.449C153.225 19.449 154.074 18.1112 154.751 12.6512C155.429 7.19126 154.866 5.74101 151.356 5.74101C147.846 5.74101 146.769 7.19126 146.092 12.6512C145.414 18.1112 146.035 19.449 149.658 19.449ZM167.149 15.3269H171.336L173.091 1.39403H189.337L188.941 4.40319C187.696 4.73671 185.431 5.6848 185.036 9.02748L181.865 34.3824C181.469 37.725 183.448 38.6731 184.64 39.0067L184.244 42.0158H167.998L170.377 23.069H166.19L167.153 15.3231L167.149 15.3269Z" fill="#B88F63"/>
<path d="M191.548 2.45089H226.077L225.114 10.1968H214.246L211.471 32.5425C210.794 37.9462 214.3 43.5748 221.604 45.0813L220.755 51.9915C212.663 51.8229 206.888 50.3201 203.436 45.2499C198.568 50.3201 192.397 52.4936 184.362 52.7185L185.211 45.8083C192.854 44.3018 197.89 37.95 198.568 32.5462L201.342 10.2005H190.589L191.552 2.45464L191.548 2.45089ZM246 1.39038L245.661 4.39954C244.359 4.73306 242.151 5.68115 241.698 9.02383L237.226 45.2462C236.773 48.5889 238.752 49.5369 239.944 49.8705L239.605 52.8796H223.359L229.754 1.39413H246V1.39038Z" fill="#B88F63"/>
</g>
<defs>
<clipPath id="clip0_26_126">
<rect width="246" height="54" fill="white"/>
</clipPath>
</defs>
</svg>
