<svg width="247" height="71" viewBox="0 0 247 71" fill="none" xmlns="http://www.w3.org/2000/svg">
<g clip-path="url(#clip0_26_133)">
<path d="M83.404 31.0949C85.8703 36.0052 91.9279 38.2002 100.577 38.5547L101.99 31.0082C95.4283 30.2501 91.2687 26.0601 92.3332 20.3125L93.6516 13.3468L104.581 14.0219L106.085 6.01146L70.4744 3.81274L68.9742 11.8232L80.021 12.5058L78.7027 19.4715C77.6382 25.2191 71.8079 29.7938 65.1555 29.5562L63.7424 37.1027C70.194 37.676 78.4034 36.5974 83.4078 31.0949H83.404Z" fill="white"/>
<path d="M83.9345 40.5836L67.0687 39.5427L66.5156 42.7371C67.7279 43.1632 69.7812 44.2909 69.1523 47.7756L67.3832 57.238L115.863 60.2325L117.287 52.5087L82.1464 50.3364L83.9345 40.5799V40.5836Z" fill="white"/>
<path d="M116.924 39.3921L117.469 36.4994L112.234 5.51376L109.726 5.35913L102.024 46.5765L118.89 47.6174L119.132 46.3427L118.753 44.0987C117.628 43.4916 116.412 42.2206 116.924 39.3921Z" fill="white"/>
<path d="M128.884 9.69252L129.433 6.55473L115.075 5.66846L120.31 36.6541L124.523 14.2974C125.152 10.8126 127.508 9.96029 128.88 9.69252H128.884Z" fill="white"/>
<path d="M135.532 45.9242L148.34 46.7162L149.128 42.5941L163.35 43.4728L164.839 35.6396L125.879 33.2297L124.39 41.0667L136.32 41.8021L135.532 45.9242Z" fill="white"/>
<path d="M129.641 23.0696C128.383 29.9787 136.51 32.1247 144.617 32.6263C152.61 33.1203 161.467 32.0228 162.721 25.1137C163.145 23.0243 165.335 21.0481 166.475 20.7049C165.506 20.1769 164.108 17.9744 164.475 15.8851C165.729 9.0325 157.55 6.82625 149.557 6.33219C141.446 5.8306 132.645 6.99219 131.391 13.841C131.024 15.9341 128.777 17.9066 127.573 18.3026C128.607 18.7777 130.062 20.9802 129.634 23.0696H129.641ZM142.503 19.2265C143.563 13.5355 144.658 12.0798 148.42 12.3098C152.065 12.5361 152.557 14.0937 151.492 19.7809C150.432 25.4719 149.462 26.8183 145.761 26.592C141.999 26.3582 141.442 24.9138 142.503 19.2265Z" fill="white"/>
<path d="M162.683 31.4533L167.032 31.7211L163.323 51.4567L180.189 52.4976L180.799 49.3636C179.587 48.9374 177.59 47.8136 178.223 44.3288L183.171 17.9141C183.799 14.4293 186.213 13.5807 187.527 13.3092L188.137 10.1752L171.271 9.13428L168.54 23.6465L164.191 23.3788L162.687 31.4495L162.683 31.4533Z" fill="white"/>
<path d="M143.613 47.8324L126.747 46.7915L126.198 49.9293C127.41 50.3555 129.539 51.1927 128.853 54.6737L127.694 60.9455L177.348 64.0116L178.772 56.2878L142.457 54.0439L143.613 47.8324Z" fill="white"/>
<path d="M209.072 44.3024L213.413 21.0217L224.695 21.7194L226.199 13.6486L190.353 11.4348L188.849 19.5056L200.014 20.1957L195.672 43.4765C194.615 49.1071 188.967 55.4544 180.936 56.5443L179.602 63.7439C187.959 64.0267 194.509 62.141 199.893 57.1289C203.147 62.6728 209.041 64.6226 217.433 65.3165L218.766 58.117C211.284 56.0691 208.007 49.9368 209.068 44.3062L209.072 44.3024Z" fill="white"/>
<path d="M230.09 12.7737L221.02 61.3868L223.971 59.716L228.548 60.8324L228.051 66.9081L231.378 67.1117L232.378 63.5289L235.09 62.1335C234.825 61.4245 234.738 60.5043 234.977 59.2899L241.989 21.5535C242.678 18.0725 245.031 17.2201 246.406 16.9524L246.955 13.8146L230.09 12.7737Z" fill="white"/>
<path d="M223.036 61.1113L220.085 62.7821L219.145 67.8093L227.12 68.3034L227.612 62.2277L223.036 61.1113Z" fill="white"/>
<path d="M235.988 65.6673L235.969 64.1662C235.73 63.8872 235.518 63.5591 235.367 63.1555L232.654 64.5509L232.419 65.3882L233.62 66.6591L235.988 65.6673Z" fill="white"/>
<path d="M238.886 65.5429C238.344 65.3468 237.659 65.0036 237.125 64.3813L237.143 65.8824L237.117 65.8937L238.45 65.7579L238.886 65.5392V65.5429Z" fill="white"/>
<path d="M232.112 66.5386L231.347 69.2841L232.662 69.3633L233.306 67.802L232.112 66.5386Z" fill="white"/>
<path d="M232.658 71.0001L233.685 70.276L232.973 70.2307L232.658 71.0001Z" fill="white"/>
<path d="M238.613 66.0556C238.613 66.0556 238.587 66.0443 238.572 66.0405L238.136 66.2593L236.803 66.395L234.465 67.3756V67.3681L233.817 68.9294L234.53 68.9747L238.613 66.0933L238.621 66.0556H238.613Z" fill="white"/>
<path d="M0.0449219 42.3903L2.84073 42.5826C3.1438 41.6134 4.12499 39.2337 6.10631 39.3694L20.0285 40.3198L18.8428 46.4709C18.2063 49.7483 15.8121 50.5176 14.5089 50.7779L13.8838 53.8817L34.6213 55.296L35.2426 52.1921C34.0417 51.7622 32.068 50.6949 32.7044 47.4176L33.8902 41.2664L47.7518 42.213C49.7331 42.3488 49.7975 44.8002 49.7293 45.7845L52.582 45.9807L54.7716 34.5949L2.17777 31.0007L0.0449219 42.3903Z" fill="white"/>
<path d="M40.1865 10.1752L56.844 11.3141L58.5412 2.80968L19.0626 0.109375L12.9141 8.31213L25.6279 9.17954L25.5256 9.81314C24.1655 16.8279 15.9751 21.8627 4.91686 21.8627L3.48486 29.0472C14.4219 29.9674 24.8512 28.1156 30.3709 22.7263C33.7046 28.7228 43.1945 31.9323 54.158 32.5055L55.59 25.3211C44.7515 23.8238 38.728 17.8198 40.088 10.805L40.1903 10.1714L40.1865 10.1752Z" fill="white"/>
<path d="M7.79584 0.905029L7.18213 3.96739L9.13314 0.995542L7.79584 0.905029Z" fill="white"/>
<path d="M18.036 0.407309L12.092 0L14.5848 5.00839L18.036 0.407309Z" fill="white"/>
<path d="M10.8796 1.07103L9.81889 0.995605L7.86788 3.96745L7.34888 6.58102L11.6297 8.39883L13.3686 6.07565L10.8796 1.07103Z" fill="white"/>
<path d="M6.61024 8.4856L6.15942 10.7371L8.17483 10.8767L7.79979 8.99473L6.61024 8.4856Z" fill="white"/>
<path d="M11.5047 8.83254L8.72021 7.6521L9.18997 10.0205L10.5462 10.111L11.5047 8.83254Z" fill="white"/>
</g>
<defs>
<clipPath id="clip0_26_133">
<rect width="246.91" height="71" fill="white" transform="translate(0.0449219)"/>
</clipPath>
</defs>
</svg>
