<?xml version="1.0" encoding="utf-8"?>
<!-- Generator: Adobe Illustrator 28.3.0, SVG Export Plug-In . SVG Version: 6.00 Build 0)  -->
<svg version="1.1" id="레이어_1" xmlns="http://www.w3.org/2000/svg" xmlns:xlink="http://www.w3.org/1999/xlink" x="0px"
	 y="0px" viewBox="0 0 756 219" style="enable-background:new 0 0 756 219;" xml:space="preserve">
<style type="text/css">
	.st0{fill:#FFFFFF;}
	.st1{fill:#212121;}
	.st2{fill:#D42828;}
	.st3{fill:#FDFDFD;}
</style>
<g>
	<path class="st0" d="M355.8,123.3l39.2-9.1c0,0-13.2,28.4,1.5,68.8l-5.9,4.2L351.3,177L355.8,123.3z"/>
	<path class="st0" d="M162.3,78.1c0,0-0.1-22.2,21.1-26.4c11.5-1.9,14.8,9.7,14.6,20.6c0.8,2.8,1.5,3,4.2-7.6
		c2.7-10.5,21-4.7,21.9,4.8s-0.1,32.5,7.8,35.1c-4.4,3.5-14.5,9.8-14.8,20.2s-18.8-8.2-18.8-8.2s-2.6-2.1-9.7,0.7
		c-7.1,2.9-16.2,4.5-20.8-6.5s-17.6-9.2-15.9-14S164.3,86.4,162.3,78.1z"/>
	<path class="st1" d="M366,123.3c8.5-2.4,18.6-4.5,26.4-8.7c2.2-1.2,0.8-4.1-1.4-3.9c-8.8,0.8-18.4,5-26.4,8.6
		C362.4,120.3,363.7,123.9,366,123.3z"/>
	<path class="st1" d="M371.1,183.6c4.4,1.2,8.6,3.1,13,4.5c3.2,1,7,2.5,10.2,1.1c1-0.4,0.9-1.8,0.1-2.3c-2.9-2.1-7.7-2.7-11.2-3.7
		c-3.9-1.2-7.6-2.1-11.7-2.3C370,180.8,369.5,183.1,371.1,183.6L371.1,183.6z"/>
	<path class="st1" d="M175,161.1c-5.5-7.4-19-12-28-12.3c-5.2-0.2-14.7,2.8-11.8,9.7c0.3,0.8,1.5,1.1,2.2,0.7
		c1.9-1.1,4.1-3.7,5.8-4.2c3.7-1.1,8.2,0.9,11.6,2c6.2,2,11.8,5.9,18.1,7.4C174.9,164.7,176.2,162.7,175,161.1L175,161.1z"/>
	<path class="st2" d="M239.4,205.7c7,5.8,19,8.6,28,7c3.8-0.7,5.3-2.7,7.3-6c1.3-2.2,1.7-4.8,2.2-7.3c1.1-5.3,2.9-10.4,5.5-15.1
		l-41.1-22.9l-33.6,3.1c-11.1-1-22.3-2.1-33.5-3.1c-0.6,2.9-1.2,5.8-1.9,8.7L239.4,205.7L239.4,205.7z"/>
	<path class="st1" d="M160.8,170.3c-12.8,5.9-25.8,11.2-39.1,15.8c-2.7,0.9-5.5,1.8-8.3,1.6c-2.5-0.2-4.9-1.4-7.1-2.5
		c-18.2-9-36.4-17.9-54.6-26.8c20.8-7.2,41.6-14.3,62.3-21.5c2.4-0.8,5-1.7,7.5-1.4c2.1,0.2,4,1.1,5.9,2c9.8,4.7,19.6,9.3,29.4,14
		c5.4,2.6,6.6,3.8,9.3,5c2.6,1.2,6.6,6.6,2.5,9.1C164.5,168.1,160.8,170.3,160.8,170.3"/>
	<path class="st2" d="M401.8,95.4c2-11.2,1.3-22.9-1.8-33.8c-2.5-8.7-6.6-16.9-8.2-25.8l-33.6,18.5l-10.9,48.2l11.7,17.1l44.2-8.1
		L401.8,95.4L401.8,95.4z"/>
	<path class="st2" d="M269.9,177.6c29.7,22.8,71.9,28.1,106.3,13.3c0,0-5.9-18.8-9.3-21.2c-3.5-2.4-27.9-41.6-27.9-41.6l-4.8-21.2
		l-51.5-16.4l-31.2,16.8l-2.3,37.9l13.8,28.4L269.9,177.6L269.9,177.6z"/>
	<path class="st2" d="M276.9,90.3c-22.2-9.3-50.7,0.9-62,22.2c-11.7,22-5.1,48.9-6.7,73.8c-17.1-4.7-33.6-11.1-49.4-19.2
		c-1.4,5.5-2.7,11-4.1,16.5c15.8,10.5,32.3,19.7,49.6,27.6c3.7,1.7,7.5,3.4,11.5,3.9c9.8,1.3,19.3-4.2,26.9-10.7
		c26.1-22,40.2-57.4,36.5-91.4"/>
	<path class="st1" d="M181.9,48.4c-26.1,4.2-27.7,33.8-20.8,54.1c2.6,7.8,5.9,21.6,15.8,23c3.1,0.4,5.4-1,8.2-2
		c6.4-2.3,7-3.8,13.7,0c2.5,1.4,4.4,2.6,7.1,3.8c4.1,1.7,7.5-5.1,3.4-7.1c-4.4-2.1-9.1-6.7-14.1-7.4c-7.4-1.1-10.7,5.5-17.7,3.3
		c-9.3-3-12.5-21.1-13.5-30.1c-1.5-13.9,4-28.7,19-32.1C186.6,52.9,185.4,47.9,181.9,48.4z"/>
	<path class="st0" d="M163.6,79c-1.9,4.7-7.4,14.1-11,17.1c-0.3,0.3-0.7,0.6-0.7,1c-0.1,0.5,0.2,0.9,0.5,1.2
		c3,3.9,13.2,6.2,15.5,6.5"/>
	<path class="st1" d="M162.3,78.1c-2.9,3.8-5.7,7.8-8.6,11.6c-2.1,2.8-6.5,5.6-4.8,9.6c2.2,5.1,14.8,10.8,19.9,8.3
		c1.9-0.9,2.4-3.6,0.9-5.1c-1.7-1.8-4.3-1.9-6.6-2.5c-1.5-0.4-7.6-1.8-8-3.7c-0.2,0.9-0.3,1.7-0.5,2.6c4.4-6.3,9.2-11.9,10.3-19.9
		C165.3,77.5,163.1,77.1,162.3,78.1L162.3,78.1z"/>
	<path class="st1" d="M251.9,87.8c2.5,1.4,6-1.9,4.7-4.5c-0.4-0.8-1.1-1.6-1.1-2.5c0-0.9,0.8-1.6,1.5-2.1c3.1-2.1,6.7-3.2,9.8-5.2
		c3.1-2,5.7-5.7,4.7-9.3c-2.8,1.3-5.9,2.1-8.9,1.4c-3-0.7-5.7-3.1-6-6.2c-0.2-2.7,1.3-5.2,1.8-7.8c1.2-6.8-4.8-12.5-10.2-16.7
		c3,0,6.2-0.1,8.9-1.5c2.7-1.4,4.8-4.6,3.8-7.5c-0.9-2.6-3.7-4-6.4-5c-6.5-2.3-13.2-3.8-20.1-4.5c4.5-1,10.2-3.8,9.1-8.2
		c-0.6-2.4-2.9-3.8-5.2-4.7c-20.1-8.5-44.5,1.3-58.2,18.3c1.8-4.7,2.6-9.7,2.5-14.8c-14.1,5.4-23.4,21.2-21.2,36.2
		c-1.4-3-3.3-5.8-5.6-8.2c-1.1-1.1-2.5-2.2-4.1-1.8c-1.1,0.3-1.9,1.4-2.4,2.5c-5.4,11.2,3.3,26.4,15.6,27.5c0,0,6.6-11.9,17.8-9.4
		c5.8,1.3,10.6,3.5,11,9.4c0.4,5.9,0.1,18.8,5.3,17.2c5.2-1.5,1.4-17.8,10.9-14c9.5,3.8,7.7,14.8,6.9,17.1
		c-0.8,2.3,8.7,13.8,8.7,13.8L251.9,87.8L251.9,87.8z"/>
	<path class="st1" d="M170.5,88.4c1.7,0.3,5.1-0.8,4.5-3.1c-0.5-2.4-3.9-2-5.5-1.3C167.2,85.1,168.3,88.1,170.5,88.4L170.5,88.4z"/>
	<path class="st2" d="M258.6,85.3c15.9,0.2,31.1-6.4,44.8-14.5c13.7-8.1,26.5-17.7,41-24.4c15.3-7.1,32.1-10.7,49-10.5
		c-12.7,5.4-25.1,15.6-26.1,29.4c-0.9,12.3,7.6,23.6,7.6,36c0.1,8.9-4.3,17.1-7,25.6c-4,12.2-4.8,25.9,0.6,37.5
		c3.7,7.9,10.2,15.9,7.5,24.1"/>
	<path class="st1" d="M383.5,112.3c24.3-19.5,56.4-22.6,67.9-25c38.5-7.8,76.8,14.3,114.6,24.6c4.6,1.2,9.4,2.4,14.1,1.5
		c4.5-0.9,8.4-3.7,12.1-6.4c22.6-16.1,46.7-30.1,71.9-41.6c4.8,5.9,9.6,11.7,14.3,17.5c0,0-85.5,100.1-111.9,108.7
		c-26.3,8.6-75.5,19.6-123.9,11.8c-48.3-7.7-59.2-15.9-59.2-15.9S374.2,140.8,383.5,112.3"/>
	<path class="st1" d="M680.9,75.1c3.5-2.6,8-5.4,12-3.5c1.6,0.7,2.8,2.1,4.2,3.2c3,2.4,6.8,3.5,10.6,4.6
		c-5.2-8.3-11.1-16.2-17.6-23.6c-7.7,4.1-15.9,7.5-24.3,10l11.1,12.7L680.9,75.1L680.9,75.1z"/>
	<path class="st1" d="M637.1,133.6c12.1,1.9,24.6-0.4,36.3-3.9c11.8-3.6,23.1-8.4,34.9-11.9c1.2-0.3,2.4-0.7,3.5-0.2
		c1,0.4,1.6,1.3,2.2,2.1c3.2,4.7,6.2,9.6,8.8,14.7l-6.5,4.3c-11.8,6.4-23.7,12.7-35.5,19.1c-21.7,11.7-60.9,26.5-96.4,25.9
		c-7.4-0.1-14.6-7.6-14.6-7.6l56.8-46L637.1,133.6L637.1,133.6z"/>
	<path class="st1" d="M727.5,128.8c9.8-1.3,18.6,7.6,28.4,7c-4.5-8.6-9.7-16.8-15.5-24.5c-7.6,4-15.7,7.1-24.1,9.3l7.2,10.6
		L727.5,128.8L727.5,128.8z"/>
	<path class="st0" d="M153,181.7c-0.2-0.3,0.5-0.2,0.4,0.1c-0.1,0.3-0.5,0.4-0.8,0.3c-7.8-0.7-12.5-10.9-20.3-11
		c-3.4-0.1-6.5,1.9-9.9,2.5c-1.9,0.3-4.4-0.2-4.8-2c-0.4-1.8,1.4-3.3,3-4.3c2.4-1.5,4.9-3,7.3-4.5c2.4-1.5,5-3,7.8-3.2
		c2.7-0.2,5.3,0.9,7.8,2c3.6,1.5,7.3,3.1,10.9,4.6c0.3,0.1,0.6,0.2,0.8,0.3c2.3,1.5,7.3,4.9,7.3,4.9"/>
	<path class="st1" d="M153.5,179.6c-6.2-0.8-10-7.7-15.5-10.3c-1.5-0.7-14.7-2-13.9,0.4c-0.5-1.6,6.4-5.2,7.7-5.6
		c6.5-2.3,10.7,0.4,16.2,2.8c4.7,2,8.6,4.3,12.8,7.2c3.3,2.2,6.6-2.9,3.4-5.2c-7.4-5-16.7-11-25.7-12.2c-6.5-0.8-11.7,2.9-17,6.2
		c-2.7,1.7-6.3,3.3-7,6.7c-0.6,2.8,0.5,5,3,6.4c6.2,3.4,12-3.6,18.8-0.3c4.5,2.2,13.7,13.6,18.9,7.2
		C156.3,181.5,155,179.8,153.5,179.6L153.5,179.6z"/>
	<path class="st1" d="M80.4,79.6c0.8-0.1,10.5,17.7,11.8,19.6c4.3,6.6,8.9,13,13.8,19.1c1.2,1.5,6.3,6,5.8,8.1
		c-0.5,2-7.9,2.9-9.8,3.5c-7.8,2.2-15.5,4.6-23.1,7c-11.1,3.6-22.4,9.1-33.8,11.7c-5.3,1.2-7-4.6-10-8.7c-3.3-4.6-6.6-9.1-10.1-13.5
		c-6.9-8.9-14.3-17.4-22-25.6C28,91,54,83.9,80.4,79.6L80.4,79.6z"/>
	<path class="st1" d="M47.2,155.9c0.4,0.1,0.8,0.1,1.2,0.2l-0.1-0.4c0.1-0.3-0.2-0.8-0.2-1.1c-0.1-0.7-0.3-1.3-0.4-2
		c0,0.6-0.1,1.1-0.1,1.7l0.1-0.3c-0.3,0.5-0.6,1-1,1.5c0.4-0.4,0.2-0.3-0.6,0.1c0.1,0,0.2-0.1,0.3-0.1c-0.3,0-0.4,0.1-0.1,0.1
		c0.3,0,0.2,0-0.1,0c0.4,0.1,0.4,0.2,0.2,0.1c-0.2-0.1-0.2-0.1,0.2,0.1c-0.3-0.3-0.3-0.4-0.5-0.8c0-0.1,0-0.3,0-0.4
		c0,0.4,0,0.4,0-0.1c0.1-0.1,0.1-0.2,0.2-0.3c-0.2,0.3-0.2,0.3-0.1,0.1c1-1,2-0.6,3,0.3c0.2,0.3,0.2,0.3,0-0.1
		c0.1,0.1,0.1,0.3,0.2,0.4c-0.1-0.5-0.1-0.4-0.1,0.2c0-0.1,0-0.2,0-0.3c-0.3-1,0.1,0.8,0-0.2c0.3-0.6,0.1-0.5-0.5,0.3
		c-0.4,0.8-1.1,1.1-2,1c-0.3,0-1.3-0.6-0.8-0.2c-0.7-0.5-0.8-0.8-1-1.9c0,0.1,0,0.3,0,0.4c0.1-0.4,0.1-0.4,0-0.1
		c-0.1,0.3-0.1,0.3,0.1-0.1c-0.1,0.3-0.3,0.5-0.5,0.7c2.4-0.2,4.7-0.4,7.1-0.6c-0.5-0.6-1.1-1.1-1.7-1.6c0.5,0.5,1,1.1,1.5,1.6
		c-0.6-0.9-1-1.9-1.8-2.7c-1.3-1.1-3.4-1.7-4.8-0.2c-1.4,1.4-1.7,2.9-1.5,4.8c0.2,1.6,0.7,2.9,1.7,4.1c1.8,2.3,5.6,1.8,7.1-0.6
		c1.6-2.5,2.6-5.9,1.2-8.8c-1.2-2.4-3.5-3.9-6.2-4c-6.5-0.2-8.2,8.7-4.4,12.8c4.1,4.5,11.4,1,11.2-4.8c-0.1-5.3-6.9-8.7-11.2-5.4
		c-1.6,1.2-2.3,3.4-1.3,5.2c0.6,1.1,1.6,2.1,2.5,3c0.8,0.8,1.6,1.8,2.9,1.9c1.1,0.1,2.2-0.6,2.4-1.7
		C49.7,156.5,48.5,155.3,47.2,155.9L47.2,155.9z"/>
	<path class="st1" d="M110.6,130.7c0,0-0.2,0-0.3,0c0.5,0.2,1.1,0.5,1.6,0.7c-0.1-0.1-0.1-0.1-0.2-0.2c0.2,0.6,0.4,1.1,0.6,1.7
		c0-0.3,0.1-0.8,0-1.1c0.6,1.5-1.5,2.6-2.6,2.1c-0.5-0.2-0.9-0.8-1-1.3c-0.1-0.2,0-0.4,0.1-0.5c-0.2,0.5-0.2,0.5,0-0.1
		c0.9-0.6,1.7-1.2,2.6-1.8c1.6,0.3,2,0.3,1.4,0c-0.4-0.1-0.8-0.2-1.2-0.2c-1.2-0.1-2.1,0.4-3,1.1c-1.6,1.1-1.6,3.6-0.9,5.1
		c1,2.4,4,3.2,6.2,2.1c1.3-0.7,2.3-1.9,2.7-3.4c0.9-3-0.3-6.6-3.3-7.9c-2.8-1.3-6.6,0-7.2,3.3c-0.2,1.4,0.2,2.7,1.1,3.7
		c0.6,0.6,1.3,1,2.1,1.1c0.3,0.1,0.6,0.1,0.9,0c-0.3,0-0.3,0,0.1,0.1C113.3,135.7,113.5,131.1,110.6,130.7L110.6,130.7z"/>
	<path class="st3" d="M20.8,103.8c6.5,10.9,14.1,21.2,22.7,30.5c0.6,0.6,1.2,1.2,2,1.3c0.5,0,0.9-0.2,1.3-0.4
		c14.8-6.5,30.3-11.6,46.1-15c-5.3-8.9-10.7-17.8-16-26.7c-0.6-1-1.3-2.1-2.4-2.6c-1.9-0.9-4.1,0.2-6,1.2
		c-14.3,7.6-31.7,7.2-46.5,13.6"/>
	<path class="st3" d="M77.6,160.7c6.5-1.3,12.5-4,18.6-6.5c6.8-2.7,14.3-4.7,20.6-8.3c0.8-0.5,0.3-1.6-0.6-1.5
		c-6.9,1.1-13.7,4.2-20.1,6.8c-6.5,2.6-13.1,5-18.7,9.2C77.4,160.6,77.5,160.7,77.6,160.7z"/>
	<path class="st3" d="M93.7,165.1c11.4-5.7,24-9,35.3-14.6c0.5-0.3,0.2-1-0.3-0.9c-12.5,2.1-24.2,9.1-35.2,15.1
		C93.1,164.8,93.3,165.3,93.7,165.1L93.7,165.1z"/>
	<path class="st3" d="M101.6,170.2c10.3-5.5,21.4-9.4,31.9-14.6c0.5-0.3,0.2-1.2-0.4-1c-11.4,3.2-21.6,9.4-31.6,15.4
		C101.3,170,101.4,170.2,101.6,170.2L101.6,170.2z"/>
	<path class="st1" d="M169.7,75.2c1.8-0.2,3.5-0.8,5.4-0.8c2.2,0,4.2,0.9,6.3,0.3c0.6-0.2,1.1-0.9,0.7-1.5
		c-2.6-3.9-12.4-5.6-13.9,0.3C168,74.5,168.7,75.3,169.7,75.2z"/>
	<path class="st1" d="M188.6,117.5c5-0.5,9.5-2,13.1-5.6c2.5-2.6,5.7-7.9,3-11.2c-0.6-0.8-2.2-1-2.9-0.1c-1.1,1.3-1.1,2.2-1.6,3.9
		c-0.5,1.8-1.5,3.5-2.8,4.9c-2.5,2.7-6.3,4.6-9.6,6.2C186.7,116.1,187.5,117.7,188.6,117.5z"/>
	<path class="st1" d="M205.9,86.5c-1.9,4.6,6,4.4,8.4,3.9c4-0.8,8.1-4,8-8.5c0-2.2-3.3-3.8-4.5-1.5c-1.1,2.1-1.9,3.7-4.4,4.3
		c-1.4,0.4-4.2,1.1-5.5,0.6C207.1,85.2,206.2,85.7,205.9,86.5L205.9,86.5z"/>
	<path class="st1" d="M282.5,184.7c0.4,0,0.4-0.6,0-0.6C282.2,184.1,282.1,184.7,282.5,184.7z"/>
	<path class="st3" d="M367.4,136.8c5.6-13.7,11-27.8,11.2-42.7c0.2-18.9-1.8-34,7.2-51.6c0.3-0.6-0.4-1.2-0.9-0.8
		c-10.5,9.6-10.6,24.8-10.4,38.1c0.2,10.9,0.5,21.1-2.2,31.9c-2.1,8.4-5.6,16.1-6.1,24.9C366.2,137.3,367.1,137.4,367.4,136.8
		L367.4,136.8z"/>
	<path class="st3" d="M216.4,218.6c30.7-4.4,49.6-39.1,57.8-65.8c0.3-1-1.1-1.7-1.6-0.8c-14.2,28.5-23.7,54-56.7,64.1
		C214.3,216.6,214.8,218.8,216.4,218.6L216.4,218.6z"/>
	<path class="st3" d="M167.1,169.8c5.7,5.8,12,8.5,19.6,11.1c5,1.7,15,7,20.4,5.3c4.2-1.3,3.8-5.5,3.5-9.1
		c-0.8-10.6-0.9-22-3.3-32.4c-0.2-1-1.6-0.8-1.7,0.2c-0.3,5.3,0.4,10.6,0.9,15.8c0.3,3.1,0.5,6.2,0.8,9.3c0.2,1.9,1.6,9.6,0.8,10.9
		c-4.2,7.9-35.5-8.3-39.8-12.2C167.6,167.9,166.3,169,167.1,169.8L167.1,169.8z"/>
	<path class="st3" d="M262.8,176.6c16.4,13.6,37,23.9,57.6,29.2c1.2,0.3,1.6-1.2,0.6-1.7c-19.7-8.9-38.3-18.6-57.1-29.2
		C262.8,174.3,261.8,175.8,262.8,176.6L262.8,176.6z"/>
	<path class="st3" d="M255,105.8c8.5,6.8,12.6,14.5,14,25.3c0.1,0.8,1.2,0.6,1.3-0.1c1.1-10.3-5.3-21.7-14.6-26.2
		C255,104.5,254.4,105.3,255,105.8z"/>
	<path class="st3" d="M637.5,129c-8.5,6.7-15.6,15.5-23.4,23c-7.9,7.6-16.9,14.2-24.2,22.3c-0.6,0.6,0.1,1.7,0.9,1.2
		c9.5-5.4,17.7-13.5,25.6-21c7.9-7.4,16.6-15.3,22.2-24.7C638.9,129.1,638.1,128.5,637.5,129L637.5,129z"/>
	<path class="st3" d="M579.2,106.9c-3.2,1.4-4.6,5.8-5.7,8.9c-1.6,4.4-2.5,8.7-2.5,13.4c0,1.4,1.8,1.4,2.1,0.1
		c0.8-4.2,1.7-8.5,3.2-12.6c1.1-3.1,3.6-6.2,3.3-9.6C579.5,107,579.3,106.8,579.2,106.9L579.2,106.9z"/>
	<path class="st1" d="M50,158.7c-0.7,1.6-1.2,3.3-1.4,5.1c-0.1,0.6,0,1.3,0.6,1.7c19.9,12.5,39.8,24.3,62.1,31.6
		c2.3,0.8,3.5-2.8,1.2-3.6c-11.5-3.8-21.9-8.2-32.6-14c-7.1-3.8-28.2-11.4-28-20.4C51.8,157.9,50.3,157.6,50,158.7L50,158.7z"/>
	<path class="st1" d="M113.4,194.7c1.2-2.5,2.1-4.7,1.9-7.5c-0.2-1.8-3.2-1.5-3.1,0.3c0.1,2.1,0.2,4.3-0.5,6.4
		C111.2,194.9,112.9,195.7,113.4,194.7z"/>
	<path class="st1" d="M113.3,196.7c5.8-1.9,11.5-4.1,17.1-6.3c5.5-2.1,11.7-4.3,15.9-8.5c1.1-1.2-0.1-2.9-1.6-2.3
		c-5.4,2.4-10.4,5.4-16,7.5c-5.6,2.1-11.3,3.9-16.3,7.2C111.4,195.1,111.8,197.2,113.3,196.7L113.3,196.7z"/>
	<path class="st1" d="M45,145.8c1.8,3.7,3.8,7.5,7.1,9.9c3,2.2,6.9,3,10.6,2.8c3.7-0.2,7.4-1.3,10.9-2.6
		c11.3-4.3,21.7-10.8,33.1-14.6c3.2-1.1,6.8-2.3,8.2-5.4c1.1-2.7-0.1-5.9-2.4-7.7c-2.3-1.8-5.3-2.3-8.2-2c-2.9,0.2-5.6,1.2-8.4,2
		c-8.5,2.5-17.3,4.1-25.8,6.9c-8.5,2.7-16.8,6.7-22.9,13.2"/>
	<path class="st3" d="M41.7,156.8c-2.3-5,5.2-7.5,8-3.7c1.1,1.5,1.2,3.5,0.1,5.1c-1,1.4-2.6,2.1-3.4,3.5c-0.5,0.8,0.2,1.7,1.1,1.6
		c3-0.4,5.8-3.9,6.2-6.8c0.3-3.1-1.5-6.1-4.3-7.4c-2.8-1.3-6.5-1-9,0.9c-2.6,2-3.4,5.9-0.8,8.2C40.6,159.3,42.3,158.2,41.7,156.8
		L41.7,156.8z"/>
	<path class="st3" d="M41.6,151.3c20.9-4.1,43.4-12.8,62.3-22.7c0.4-0.2,0.2-1-0.3-0.8c-20.6,7.5-41.8,14.8-62.1,23.2
		C41.3,151,41.4,151.3,41.6,151.3L41.6,151.3z"/>
	<path class="st3" d="M72.4,152.3c18.8-7.2,38.2-12.8,56.9-20c1.1-0.4,0.4-2.1-0.7-1.9c-19.2,4.1-38.8,12.9-56.3,21.8
		C72.2,152.3,72.3,152.4,72.4,152.3z"/>
	<path class="st1" d="M3,101.2c-7.8,2.1,2.7,13.2,4.6,16c9.1,13,18.8,26.1,30.3,37.1c1.1,1,2.6-0.4,1.7-1.5
		c-4.3-5.4-42.2-45.7-36.4-50.9C3.5,101.6,3.3,101.1,3,101.2z"/>
</g>
</svg>
